<svg width="24" height="24" viewBox="0 0 24 24" fill="none" xmlns="http://www.w3.org/2000/svg">
<path d="M9 10C10.1046 10 11 9.10457 11 8C11 6.89543 10.1046 6 9 6C7.89543 6 7 6.89543 7 8C7 9.10457 7.89543 10 9 10Z" stroke="#667085" stroke-width="1.5" stroke-linecap="round" stroke-linejoin="round"/>
<path d="M12 2H9C4 2 2 4 2 9V15C2 20 4 22 9 22H15C20 22 22 20 22 15V11" stroke="#667085" stroke-width="1.5" stroke-linecap="round" stroke-linejoin="round"/>
<path d="M16.1197 5.10941C15.7897 4.06941 16.1797 2.77941 17.2597 2.42941C17.8297 2.24941 18.5397 2.39941 18.9397 2.94941C19.3197 2.37941 20.0497 2.23941 20.6197 2.42941C21.7097 2.77941 22.0997 4.06941 21.7697 5.10941C21.2497 6.74941 19.4497 7.60941 18.9497 7.60941C18.4397 7.60941 16.6497 6.76941 16.1197 5.10941Z" stroke="#667085" stroke-width="1.5" stroke-linecap="round" stroke-linejoin="round"/>
<path d="M2.66992 18.9505L7.59992 15.6405C8.38992 15.1105 9.52992 15.1705 10.2399 15.7805L10.5699 16.0705C11.3499 16.7405 12.6099 16.7405 13.3899 16.0705L17.5499 12.5005C18.3299 11.8305 19.5899 11.8305 20.3699 12.5005L21.9999 13.9005" stroke="#667085" stroke-width="1.5" stroke-linecap="round" stroke-linejoin="round"/>
</svg>
